# xmcd
#
# Track frame offsets:
#	150
#	12583
#	24273
#	36545
#	49636
#	62728
#	76089
#	88213
#	99675
#	112270
#	124842
#	136811
#	148405
#	159316
#	171107
#	183379
#	194138
#	205405
#	217727
#	229302
#	241588
#	254359
#	266052
#	278255
#	291027
#
# Disc length: 4063 seconds
#
# Revision: 0
# Processed by: cddbd v1.5.2PL0 Copyright (c) Steve Scherf et al.
# Submitted via: dBpowerAMP V4.0
#
DISCID=710fdd19
DTITLE=Hank Williams - Lost Highway
DYEAR=1900
DGENRE=Country
TTITLE0=Move it on over
TTITLE1=A mansion on the hill
TTITLE2=Lovesick blues
TTITLE3=Wedding bells
TTITLE4=Mind your own business
TTITLE5=You're gonna change (or I'm gonna leave)
TTITLE6=Lost highway
TTITLE7=My bucket's got a hole in it
TTITLE8=I'm so lonesome I could cry
TTITLE9=I just don't like this kind of living
TTITLE10=Long gone lonesome blues
TTITLE11=My son calls another man daddy
TTITLE12=Why don't you love me?
TTITLE13=Why should we try anymore?
TTITLE14=They'll never take her love away from me
TTITLE15=Moanin' the blues
TTITLE16=Nobody's lonesome for me
TTITLE17=Cold cold heart
TTITLE18=Dear John
TTITLE19=Howlin' at the moon
TTITLE20=May you never be alone
TTITLE21=Low down blues
TTITLE22=Just waitin'
TTITLE23=Why don't you make up your mind
TTITLE24=Beyond the sunset
EXTD=
EXTT0=
EXTT1=
EXTT2=
EXTT3=
EXTT4=
EXTT5=
EXTT6=
EXTT7=
EXTT8=
EXTT9=
EXTT10=
EXTT11=
EXTT12=
EXTT13=
EXTT14=
EXTT15=
EXTT16=
EXTT17=
EXTT18=
EXTT19=
EXTT20=
EXTT21=
EXTT22=
EXTT23=
EXTT24=
PLAYORDER=
